<svg class="icon" viewBox="0 0 1024 1024" xmlns="http://www.w3.org/2000/svg" width="128" height="128"><defs><style/></defs><path d="M654.807 761.817c0-112.493-142.861-203.694-319.093-203.694s-319.092 91.2-319.092 203.694c0 4.676.609 9.253 1.095 13.843h-1.095v68.433h638.183V775.66h-1.095c.485-4.593 1.095-9.17 1.095-13.843zM188.956 326.666c0 81.051 65.705 146.758 146.758 146.758s146.759-65.706 146.759-146.758-65.706-146.759-146.759-146.759c-81.052 0-146.758 65.706-146.758 146.759zm367.314 0c0 81.051 65.707 146.758 146.76 146.758s146.758-65.706 146.758-146.758-65.706-146.759-146.759-146.759c-81.051 0-146.758 65.706-146.758 146.759zm465.848 435.152c0-112.496-142.861-203.695-319.093-203.695-16.589 0-32.752 1.056-48.66 2.614 61.408 69.706 98.959 160.931 98.959 261.128 0 7.507-.71 14.83-1.123 22.23h269.914v-68.433h-1.095c.488-4.595 1.097-9.17 1.097-13.842z"/></svg>