<svg class="icon" viewBox="0 0 1024 1024" xmlns="http://www.w3.org/2000/svg" width="81" height="81"><defs><style/></defs><path d="M553.862 156.618a59.437 59.437 0 0 0-79.868 0l-322.957 306.66a29.793 29.793 0 0 0 39.897 44.254l5.136-4.876v320.065a59.586 59.586 0 0 0 59.585 59.66h173.4V702.993a41.955 41.955 0 0 1 41.973-42.01h81.592a41.955 41.955 0 0 1 41.973 42.01v179.388h177.515a59.586 59.586 0 0 0 59.604-59.66V506.568c13.238 11.976 32.018 11.068 43.03-1.205a29.793 29.793 0 0 0-2.15-42.085l-318.73-306.642z"/></svg>