<svg class="icon" viewBox="0 0 1112 1024" xmlns="http://www.w3.org/2000/svg" width="139" height="128"><defs><style/></defs><path d="M858.387 501.769c0-15.244-1.137-30.21-3.217-44.879l65.057-86.172a400.76 400.76 0 0 0-68.661-123.034L744.09 257.767a317.183 317.183 0 0 0-85.048-50.815l-42.062-99.38c-24.706-4.755-50.194-7.332-76.283-7.332-22 0-43.554 1.84-64.598 5.245l-44.956 97.992c-31.482 11.569-60.574 28.033-86.482 48.386l-107.106-13.241c-30.772 35.422-55.446 76.25-72.382 120.915l62.512 88.09c-3.03 17.602-4.69 35.675-4.69 54.142 0 15.243 1.138 30.21 3.218 44.878l-65.057 86.172a400.76 400.76 0 0 0 68.66 123.034l107.475-10.082a317.183 317.183 0 0 0 85.048 50.814l42.069 99.381c24.706 4.754 50.194 7.331 76.283 7.331 22 0 43.554-1.84 64.598-5.245l44.956-97.992c31.482-11.568 60.574-28.033 86.482-48.386l107.1 13.255c30.771-35.423 55.445-76.251 72.381-120.916l-62.512-88.09c3.023-17.615 4.69-35.681 4.69-54.154zm-120.128 0c0 109.108-88.459 197.567-197.567 197.567-109.109 0-197.567-88.452-197.567-197.567s88.452-197.567 197.567-197.567c109.108 0 197.567 88.458 197.567 197.567z"/></svg>