<svg class="icon" viewBox="0 0 1024 1024" xmlns="http://www.w3.org/2000/svg" width="128" height="128"><defs><style/></defs><path d="M541 840.974l.46-381.514c0-7.691 4.822-14.399 12.107-17.272L898.48 322.401a26.79 26.79 0 0 1 35.8 25.013v422.364a26.464 26.464 0 0 1-17.904 25.013l-350.705 122.2a18.478 18.478 0 0 1-24.676-17.322v-58.695H541zM146.75 237.435l356.045-120.192a17.47 17.47 0 0 1 15.487 0l339.065 112.1c62.416 24.554 63.387 29.832 0 50.487L521.155 391.015a25.553 25.553 0 0 1-16.93 0l-387.48-127.993c-7.745-2.468-7.745-13.538 0-15.892l30.004-9.64v-.055zm312.499 680.016L108.025 795.26a26.979 26.979 0 0 1-17.9-25.022V347.874c0-18.301 18.356-31.27 35.796-25.013l344.917 119.787c7.285 2.413 12.044 9.644 12.044 17.322l1.034 373.777v66.884a18.36 18.36 0 0 1-24.667 16.82z"/></svg>