<svg class="icon" viewBox="0 0 1024 1024" xmlns="http://www.w3.org/2000/svg" width="128" height="128"><defs><style/></defs><path d="M950.75 877.625l-106.875-112.5C872 725.75 894.5 680.75 894.5 630.125 894.5 512 804.5 422 692 422s-202.5 95.625-202.5 208.125S579.5 838.25 692 838.25c39.375 0 78.75-11.25 106.875-33.75L905.75 917c11.25 11.25 28.125 11.25 39.375 0s22.5-28.125 5.625-39.375z"/><path d="M433.25 641.375C433.25 489.5 557 365.75 708.875 365.75 770.75 365.75 827 388.25 872 422V213.875c0-56.25-45-101.25-101.25-101.25h-607.5c-56.25 0-101.25 45-101.25 101.25v506.25c0 56.25 45 101.25 101.25 101.25h337.5c-39.375-50.625-67.5-112.5-67.5-180zm-129.375-146.25H174.5c-16.875 0-33.75-16.875-33.75-33.75s16.875-33.75 33.75-33.75h129.375c16.875 0 33.75 16.875 33.75 33.75s-16.875 33.75-33.75 33.75zm90-146.25H174.5c-16.875 0-33.75-16.875-33.75-33.75s16.875-39.375 33.75-39.375h219.375c16.875 0 33.75 16.875 33.75 33.75s-16.875 39.375-33.75 39.375z"/></svg>