<svg class="icon" viewBox="0 0 1024 1024" xmlns="http://www.w3.org/2000/svg" width="81" height="81"><defs><style/></defs><path d="M812 182h-60v-48.75C752 110.562 733.437 92 710.75 92h-37.5C650.562 92 632 110.563 632 133.25V182H392v-48.75C392 110.562 373.437 92 350.75 92h-37.5C290.562 92 272 110.563 272 133.25V182h-60c-33 0-60 27-60 60v600c0 33 27 60 60 60h600c33 0 60-27 60-60V242c0-33-27-60-60-60zm-56.344 269.625L480.781 726.406c-4.781 4.782-12 5.625-17.625 2.625a13.656 13.656 0 0 1-3.844-2.718l-190.968-190.97c-5.813-5.812-5.813-15.374 0-21.187l42.469-42.468c5.812-5.813 15.375-5.813 21.187 0L470.094 609.78 692 387.97c5.813-5.813 15.375-5.813 21.188 0l42.468 42.469c5.813 5.718 5.813 15.28 0 21.187z"/></svg>